{
    "asset": {
        "version": "2.0",
        "generator": "Open Asset Import Library (assimp v5.4.0)"
    },
    "extensionsUsed": [
        "KHR_materials_volume",
        "FB_ngon_encoding"
    ],
    "accessors": [
        {
            "bufferView": 0,
            "byteOffset": 0,
            "componentType": 5126,
            "count": 2398,
            "type": "VEC3",
            "max": [
                8.607932090759277,
                -38.19565200805664,
                -75.3334732055664
            ],
            "min": [
                -66.06806945800781,
                -112.87165069580078,
                -80.3334732055664
            ]
        },
        {
            "bufferView": 1,
            "byteOffset": 0,
            "componentType": 5126,
            "count": 2398,
            "type": "VEC3",
            "max": [
                1.0,
                1.0,
                1.0
            ],
            "min": [
                -1.0,
                -1.0,
                -1.0
            ]
        },
        {
            "bufferView": 2,
            "byteOffset": 0,
            "componentType": 5125,
            "count": 7548,
            "type": "SCALAR",
            "max": [
                2397
            ],
            "min": [
                0
            ]
        },
        {
            "bufferView": 3,
            "byteOffset": 0,
            "componentType": 5126,
            "count": 1466,
            "type": "VEC3",
            "max": [
                10.69797134399414,
                -33.23447036743164,
                -163.13748168945313
            ],
            "min": [
                -68.1568374633789,
                -116.53377532958984,
                -169.4874725341797
            ]
        },
        {
            "bufferView": 4,
            "byteOffset": 0,
            "componentType": 5126,
            "count": 1466,
            "type": "VEC3",
            "max": [
                1.0,
                1.0,
                1.0
            ],
            "min": [
                -1.0,
                -1.0,
                -1.0
            ]
        },
        {
            "bufferView": 5,
            "byteOffset": 0,
            "componentType": 5125,
            "count": 4560,
            "type": "SCALAR",
            "max": [
                1465
            ],
            "min": [
                0
            ]
        },
        {
            "bufferView": 6,
            "byteOffset": 0,
            "componentType": 5126,
            "count": 1962,
            "type": "VEC3",
            "max": [
                10.69797134399414,
                -33.23447036743164,
                -80.3334732055664
            ],
            "min": [
                -68.1568374633789,
                -123.7116470336914,
                -163.13748168945313
            ]
        },
        {
            "bufferView": 7,
            "byteOffset": 0,
            "componentType": 5126,
            "count": 1962,
            "type": "VEC3",
            "max": [
                1.0,
                1.0,
                1.0
            ],
            "min": [
                -1.0,
                -1.0,
                -1.0
            ]
        },
        {
            "bufferView": 8,
            "byteOffset": 0,
            "componentType": 5125,
            "count": 5886,
            "type": "SCALAR",
            "max": [
                1961
            ],
            "min": [
                0
            ]
        },
        {
            "bufferView": 9,
            "byteOffset": 0,
            "componentType": 5126,
            "count": 1518,
            "type": "VEC3",
            "max": [
                -2.2918453216552734,
                -56.03364944458008,
                -46.1273307800293
            ],
            "min": [
                -55.16828918457031,
                -109.03365325927734,
                -70.3334732055664
            ]
        },
        {
            "bufferView": 10,
            "byteOffset": 0,
            "componentType": 5126,
            "count": 1518,
            "type": "VEC3",
            "max": [
                0.9999844431877136,
                1.0,
                1.0
            ],
            "min": [
                -1.0,
                -0.9997401833534241,
                -1.0
            ]
        },
        {
            "bufferView": 11,
            "byteOffset": 0,
            "componentType": 5125,
            "count": 5412,
            "type": "SCALAR",
            "max": [
                1517
            ],
            "min": [
                0
            ]
        },
        {
            "bufferView": 12,
            "byteOffset": 0,
            "componentType": 5126,
            "count": 849,
            "type": "VEC3",
            "max": [
                -2.2300148010253906,
                -56.095428466796875,
                -24.12733268737793
            ],
            "min": [
                -55.23001480102539,
                -108.97187042236328,
                -46.1273307800293
            ]
        },
        {
            "bufferView": 13,
            "byteOffset": 0,
            "componentType": 5126,
            "count": 849,
            "type": "VEC3",
            "max": [
                1.0,
                1.0,
                1.0
            ],
            "min": [
                -1.0,
                -1.0,
                -1.0
            ]
        },
        {
            "bufferView": 14,
            "byteOffset": 0,
            "componentType": 5125,
            "count": 2640,
            "type": "SCALAR",
            "max": [
                848
            ],
            "min": [
                0
            ]
        },
        {
            "bufferView": 15,
            "byteOffset": 0,
            "componentType": 5126,
            "count": 2672,
            "type": "VEC3",
            "max": [
                -21.592615127563477,
                -74.37174224853516,
                17.255720138549805
            ],
            "min": [
                -35.86741638183594,
                -99.29765319824219,
                -22.3682804107666
            ]
        },
        {
            "bufferView": 16,
            "byteOffset": 0,
            "componentType": 5126,
            "count": 2672,
            "type": "VEC3",
            "max": [
                1.0,
                0.9996148347854614,
                1.0
            ],
            "min": [
                -1.0,
                -1.0,
                -1.0
            ]
        },
        {
            "bufferView": 17,
            "byteOffset": 0,
            "componentType": 5125,
            "count": 8541,
            "type": "SCALAR",
            "max": [
                2671
            ],
            "min": [
                0
            ]
        },
        {
            "bufferView": 18,
            "byteOffset": 0,
            "componentType": 5126,
            "count": 318,
            "type": "VEC3",
            "max": [
                -22.780014038085938,
                -76.62702941894531,
                -12.716382026672363
            ],
            "min": [
                -34.680015563964844,
                -88.44026947021484,
                -36.16693115234375
            ]
        },
        {
            "bufferView": 19,
            "byteOffset": 0,
            "componentType": 5126,
            "count": 318,
            "type": "VEC3",
            "max": [
                0.9991819262504578,
                0.9967713952064514,
                1.0
            ],
            "min": [
                -0.9991819262504578,
                -0.9967713952064514,
                -1.0
            ]
        },
        {
            "bufferView": 20,
            "byteOffset": 0,
            "componentType": 5125,
            "count": 936,
            "type": "SCALAR",
            "max": [
                317
            ],
            "min": [
                0
            ]
        },
        {
            "bufferView": 21,
            "byteOffset": 0,
            "componentType": 5126,
            "count": 424,
            "type": "VEC3",
            "max": [
                -22.780065536499023,
                -76.62708282470703,
                33.36556625366211
            ],
            "min": [
                -34.67996597290039,
                -88.44021606445313,
                7.603719234466553
            ]
        },
        {
            "bufferView": 22,
            "byteOffset": 0,
            "componentType": 5126,
            "count": 424,
            "type": "VEC3",
            "max": [
                1.0,
                0.9967713952064514,
                1.0
            ],
            "min": [
                -1.0,
                -0.9967713952064514,
                -1.0
            ]
        },
        {
            "bufferView": 23,
            "byteOffset": 0,
            "componentType": 5125,
            "count": 1248,
            "type": "SCALAR",
            "max": [
                423
            ],
            "min": [
                0
            ]
        }
    ],
    "buffers": [
        {
            "byteLength": 425652,
            "uri": "Assembly_0.bin"
        }
    ],
    "bufferViews": [
        {
            "buffer": 0,
            "byteOffset": 0,
            "byteLength": 28776,
            "target": 34962
        },
        {
            "buffer": 0,
            "byteOffset": 28776,
            "byteLength": 28776,
            "target": 34962
        },
        {
            "buffer": 0,
            "byteOffset": 57552,
            "byteLength": 30192,
            "target": 34963
        },
        {
            "buffer": 0,
            "byteOffset": 87744,
            "byteLength": 17592,
            "target": 34962
        },
        {
            "buffer": 0,
            "byteOffset": 105336,
            "byteLength": 17592,
            "target": 34962
        },
        {
            "buffer": 0,
            "byteOffset": 122928,
            "byteLength": 18240,
            "target": 34963
        },
        {
            "buffer": 0,
            "byteOffset": 141168,
            "byteLength": 23544,
            "target": 34962
        },
        {
            "buffer": 0,
            "byteOffset": 164712,
            "byteLength": 23544,
            "target": 34962
        },
        {
            "buffer": 0,
            "byteOffset": 188256,
            "byteLength": 23544,
            "target": 34963
        },
        {
            "buffer": 0,
            "byteOffset": 211800,
            "byteLength": 18216,
            "target": 34962
        },
        {
            "buffer": 0,
            "byteOffset": 230016,
            "byteLength": 18216,
            "target": 34962
        },
        {
            "buffer": 0,
            "byteOffset": 248232,
            "byteLength": 21648,
            "target": 34963
        },
        {
            "buffer": 0,
            "byteOffset": 269880,
            "byteLength": 10188,
            "target": 34962
        },
        {
            "buffer": 0,
            "byteOffset": 280068,
            "byteLength": 10188,
            "target": 34962
        },
        {
            "buffer": 0,
            "byteOffset": 290256,
            "byteLength": 10560,
            "target": 34963
        },
        {
            "buffer": 0,
            "byteOffset": 300816,
            "byteLength": 32064,
            "target": 34962
        },
        {
            "buffer": 0,
            "byteOffset": 332880,
            "byteLength": 32064,
            "target": 34962
        },
        {
            "buffer": 0,
            "byteOffset": 364944,
            "byteLength": 34164,
            "target": 34963
        },
        {
            "buffer": 0,
            "byteOffset": 399108,
            "byteLength": 3816,
            "target": 34962
        },
        {
            "buffer": 0,
            "byteOffset": 402924,
            "byteLength": 3816,
            "target": 34962
        },
        {
            "buffer": 0,
            "byteOffset": 406740,
            "byteLength": 3744,
            "target": 34963
        },
        {
            "buffer": 0,
            "byteOffset": 410484,
            "byteLength": 5088,
            "target": 34962
        },
        {
            "buffer": 0,
            "byteOffset": 415572,
            "byteLength": 5088,
            "target": 34962
        },
        {
            "buffer": 0,
            "byteOffset": 420660,
            "byteLength": 4992,
            "target": 34963
        }
    ],
    "materials": [
        {
            "name": "Mat_1",
            "pbrMetallicRoughness": {
                "baseColorFactor": [
                    0.31854677200317383,
                    0.22322796285152435,
                    0.1119324266910553,
                    1.0
                ],
                "metallicFactor": 0.0,
                "roughnessFactor": 0.30000001192092896
            },
            "doubleSided": true
        },
        {
            "name": "Mat_4",
            "pbrMetallicRoughness": {
                "baseColorFactor": [
                    0.35153260827064514,
                    0.35153260827064514,
                    0.35153260827064514,
                    1.0
                ],
                "metallicFactor": 0.0,
                "roughnessFactor": 0.30000001192092896
            },
            "doubleSided": true
        },
        {
            "name": "Mat_6",
            "pbrMetallicRoughness": {
                "baseColorFactor": [
                    0.25015828013420105,
                    0.25015828013420105,
                    0.25015828013420105,
                    1.0
                ],
                "metallicFactor": 0.0,
                "roughnessFactor": 0.30000001192092896
            },
            "doubleSided": true
        },
        {
            "name": "Mat_7",
            "pbrMetallicRoughness": {
                "metallicFactor": 0.0,
                "roughnessFactor": 0.30000001192092896
            },
            "doubleSided": true
        }
    ],
    "meshes": [
        {
            "name": "meshes[0]",
            "primitives": [
                {
                    "mode": 4,
                    "material": 0,
                    "indices": 2,
                    "attributes": {
                        "POSITION": 0,
                        "NORMAL": 1
                    }
                }
            ]
        },
        {
            "name": "meshes[1]",
            "primitives": [
                {
                    "mode": 4,
                    "material": 0,
                    "indices": 5,
                    "attributes": {
                        "POSITION": 3,
                        "NORMAL": 4
                    }
                }
            ]
        },
        {
            "name": "meshes[2]",
            "primitives": [
                {
                    "mode": 4,
                    "material": 0,
                    "indices": 8,
                    "attributes": {
                        "POSITION": 6,
                        "NORMAL": 7
                    }
                }
            ]
        },
        {
            "name": "meshes[3]",
            "primitives": [
                {
                    "mode": 4,
                    "material": 1,
                    "indices": 11,
                    "attributes": {
                        "POSITION": 9,
                        "NORMAL": 10
                    }
                }
            ]
        },
        {
            "name": "meshes[4]",
            "primitives": [
                {
                    "mode": 4,
                    "material": 1,
                    "indices": 14,
                    "attributes": {
                        "POSITION": 12,
                        "NORMAL": 13
                    }
                }
            ]
        },
        {
            "name": "meshes[5]",
            "primitives": [
                {
                    "mode": 4,
                    "material": 2,
                    "indices": 17,
                    "attributes": {
                        "POSITION": 15,
                        "NORMAL": 16
                    }
                }
            ]
        },
        {
            "name": "meshes[6]",
            "primitives": [
                {
                    "mode": 4,
                    "material": 3,
                    "indices": 20,
                    "attributes": {
                        "POSITION": 18,
                        "NORMAL": 19
                    }
                }
            ]
        },
        {
            "name": "meshes[7]",
            "primitives": [
                {
                    "mode": 4,
                    "material": 3,
                    "indices": 23,
                    "attributes": {
                        "POSITION": 21,
                        "NORMAL": 22
                    }
                }
            ]
        }
    ],
    "nodes": [
        {
            "name": "Assembly",
            "children": [
                1
            ]
        },
        {
            "name": "Assembly v2",
            "children": [
                2,
                6,
                9
            ]
        },
        {
            "name": "RETHI Screwdriver Mount v1",
            "children": [
                3,
                4,
                5
            ]
        },
        {
            "name": "Cap",
            "mesh": 0
        },
        {
            "name": "Connector",
            "mesh": 1
        },
        {
            "name": "SOLID",
            "mesh": 2
        },
        {
            "name": "RETHI Hex Screwdriver Mount Cap v1",
            "children": [
                7,
                8
            ]
        },
        {
            "name": "Cap_node",
            "mesh": 3
        },
        {
            "name": "SOLID_node",
            "mesh": 4
        },
        {
            "name": "RETHI Vacuum Chamber Tee Fitting v1",
            "children": [
                10,
                11,
                12
            ]
        },
        {
            "name": "16T68-02-02 v1",
            "mesh": 5
        },
        {
            "name": "nodes[8]",
            "mesh": 6
        },
        {
            "name": "nodes[9]",
            "mesh": 7
        }
    ],
    "scenes": [
        {
            "nodes": [
                0
            ]
        }
    ],
    "scene": 0
}