{
    "asset": {
        "version": "2.0",
        "generator": "Open Asset Import Library (assimp v5.4.0)"
    },
    "extensionsUsed": [
        "KHR_materials_volume",
        "FB_ngon_encoding"
    ],
    "accessors": [
        {
            "bufferView": 0,
            "byteOffset": 0,
            "componentType": 5126,
            "count": 2398,
            "type": "VEC3",
            "max": [
                4.703190326690674,
                0.09197334945201874,
                9.099628448486328
            ],
            "min": [
                4.55383825302124,
                -0.057378653436899185,
                9.089629173278809
            ]
        },
        {
            "bufferView": 1,
            "byteOffset": 0,
            "componentType": 5126,
            "count": 2398,
            "type": "VEC3",
            "max": [
                1.0,
                1.0,
                1.0
            ],
            "min": [
                -1.0,
                -1.0,
                -1.0
            ]
        },
        {
            "bufferView": 2,
            "byteOffset": 0,
            "componentType": 5125,
            "count": 7548,
            "type": "SCALAR",
            "max": [
                2397
            ],
            "min": [
                0
            ]
        },
        {
            "bufferView": 3,
            "byteOffset": 0,
            "componentType": 5126,
            "count": 1466,
            "type": "VEC3",
            "max": [
                4.707370758056641,
                0.10189570486545563,
                8.924020767211914
            ],
            "min": [
                4.549660682678223,
                -0.06470289826393127,
                8.911320686340332
            ]
        },
        {
            "bufferView": 4,
            "byteOffset": 0,
            "componentType": 5126,
            "count": 1466,
            "type": "VEC3",
            "max": [
                1.0,
                1.0,
                1.0
            ],
            "min": [
                -1.0,
                -1.0,
                -1.0
            ]
        },
        {
            "bufferView": 5,
            "byteOffset": 0,
            "componentType": 5125,
            "count": 4560,
            "type": "SCALAR",
            "max": [
                1465
            ],
            "min": [
                0
            ]
        },
        {
            "bufferView": 6,
            "byteOffset": 0,
            "componentType": 5126,
            "count": 1962,
            "type": "VEC3",
            "max": [
                4.707370758056641,
                0.10189570486545563,
                9.089629173278809
            ],
            "min": [
                4.549660682678223,
                -0.07905865460634232,
                8.924020767211914
            ]
        },
        {
            "bufferView": 7,
            "byteOffset": 0,
            "componentType": 5126,
            "count": 1962,
            "type": "VEC3",
            "max": [
                1.0,
                1.0,
                1.0
            ],
            "min": [
                -1.0,
                -1.0,
                -1.0
            ]
        },
        {
            "bufferView": 8,
            "byteOffset": 0,
            "componentType": 5125,
            "count": 5886,
            "type": "SCALAR",
            "max": [
                1961
            ],
            "min": [
                0
            ]
        },
        {
            "bufferView": 9,
            "byteOffset": 0,
            "componentType": 5126,
            "count": 1501,
            "type": "VEC3",
            "max": [
                4.681390762329102,
                0.05629734694957733,
                9.158041000366211
            ],
            "min": [
                4.5756378173828125,
                -0.04970265179872513,
                9.109628677368164
            ]
        },
        {
            "bufferView": 10,
            "byteOffset": 0,
            "componentType": 5126,
            "count": 1501,
            "type": "VEC3",
            "max": [
                0.9999858140945435,
                0.9996898770332336,
                1.0
            ],
            "min": [
                -1.0,
                -0.9997401833534241,
                -1.0
            ]
        },
        {
            "bufferView": 11,
            "byteOffset": 0,
            "componentType": 5125,
            "count": 5346,
            "type": "SCALAR",
            "max": [
                1500
            ],
            "min": [
                0
            ]
        },
        {
            "bufferView": 12,
            "byteOffset": 0,
            "componentType": 5126,
            "count": 828,
            "type": "VEC3",
            "max": [
                4.681514739990234,
                0.056173793971538544,
                9.202040672302246
            ],
            "min": [
                4.575514316558838,
                -0.04957909882068634,
                9.158041000366211
            ]
        },
        {
            "bufferView": 13,
            "byteOffset": 0,
            "componentType": 5126,
            "count": 828,
            "type": "VEC3",
            "max": [
                1.0,
                1.0,
                1.0
            ],
            "min": [
                -1.0,
                -0.9999105930328369,
                -1.0
            ]
        },
        {
            "bufferView": 14,
            "byteOffset": 0,
            "componentType": 5125,
            "count": 2598,
            "type": "SCALAR",
            "max": [
                827
            ],
            "min": [
                0
            ]
        },
        {
            "bufferView": 15,
            "byteOffset": 0,
            "componentType": 5126,
            "count": 2,
            "type": "VEC3",
            "max": [
                4.628687858581543,
                0.008364285342395306,
                9.24522590637207
            ],
            "min": [
                4.628514766693115,
                0.008256991393864155,
                9.245182991027832
            ]
        },
        {
            "bufferView": 16,
            "byteOffset": 0,
            "componentType": 5126,
            "count": 2,
            "type": "VEC3",
            "max": [
                0.047413118183612823,
                -0.8564010262489319,
                -0.16419529914855957
            ],
            "min": [
                -0.4895073473453522,
                -0.9193887710571289,
                -0.3904821574687958
            ]
        },
        {
            "bufferView": 17,
            "byteOffset": 0,
            "componentType": 5125,
            "count": 2,
            "type": "SCALAR",
            "max": [
                1
            ],
            "min": [
                0
            ]
        },
        {
            "bufferView": 18,
            "byteOffset": 0,
            "componentType": 5126,
            "count": 2389,
            "type": "VEC3",
            "max": [
                4.642789363861084,
                0.01962115801870823,
                9.284807205200195
            ],
            "min": [
                4.614239692687988,
                -0.030230652540922165,
                9.205558776855469
            ]
        },
        {
            "bufferView": 19,
            "byteOffset": 0,
            "componentType": 5126,
            "count": 2389,
            "type": "VEC3",
            "max": [
                1.0,
                0.9996392726898193,
                1.0
            ],
            "min": [
                -1.0,
                -1.0,
                -1.0
            ]
        },
        {
            "bufferView": 20,
            "byteOffset": 0,
            "componentType": 5125,
            "count": 7575,
            "type": "SCALAR",
            "max": [
                2388
            ],
            "min": [
                0
            ]
        },
        {
            "bufferView": 21,
            "byteOffset": 0,
            "componentType": 5126,
            "count": 318,
            "type": "VEC3",
            "max": [
                4.640414714813232,
                0.015110583044588566,
                9.224863052368164
            ],
            "min": [
                4.61661434173584,
                -0.008515887893736362,
                9.177962303161621
            ]
        },
        {
            "bufferView": 22,
            "byteOffset": 0,
            "componentType": 5126,
            "count": 318,
            "type": "VEC3",
            "max": [
                0.9991819262504578,
                0.9967713952064514,
                1.0
            ],
            "min": [
                -0.9991819262504578,
                -0.9967713952064514,
                -1.0
            ]
        },
        {
            "bufferView": 23,
            "byteOffset": 0,
            "componentType": 5125,
            "count": 936,
            "type": "SCALAR",
            "max": [
                317
            ],
            "min": [
                0
            ]
        },
        {
            "bufferView": 24,
            "byteOffset": 0,
            "componentType": 5126,
            "count": 424,
            "type": "VEC3",
            "max": [
                4.640414237976074,
                0.015110483393073082,
                9.31702709197998
            ],
            "min": [
                4.616614818572998,
                -0.008515789173543453,
                9.2655029296875
            ]
        },
        {
            "bufferView": 25,
            "byteOffset": 0,
            "componentType": 5126,
            "count": 424,
            "type": "VEC3",
            "max": [
                0.9991819262504578,
                0.9967713952064514,
                1.0
            ],
            "min": [
                -0.9991819262504578,
                -0.9967713952064514,
                -1.0
            ]
        },
        {
            "bufferView": 26,
            "byteOffset": 0,
            "componentType": 5125,
            "count": 1248,
            "type": "SCALAR",
            "max": [
                423
            ],
            "min": [
                0
            ]
        }
    ],
    "buffers": [
        {
            "byteLength": 413708,
            "uri": "Assembly_0.bin"
        }
    ],
    "bufferViews": [
        {
            "buffer": 0,
            "byteOffset": 0,
            "byteLength": 28776,
            "target": 34962
        },
        {
            "buffer": 0,
            "byteOffset": 28776,
            "byteLength": 28776,
            "target": 34962
        },
        {
            "buffer": 0,
            "byteOffset": 57552,
            "byteLength": 30192,
            "target": 34963
        },
        {
            "buffer": 0,
            "byteOffset": 87744,
            "byteLength": 17592,
            "target": 34962
        },
        {
            "buffer": 0,
            "byteOffset": 105336,
            "byteLength": 17592,
            "target": 34962
        },
        {
            "buffer": 0,
            "byteOffset": 122928,
            "byteLength": 18240,
            "target": 34963
        },
        {
            "buffer": 0,
            "byteOffset": 141168,
            "byteLength": 23544,
            "target": 34962
        },
        {
            "buffer": 0,
            "byteOffset": 164712,
            "byteLength": 23544,
            "target": 34962
        },
        {
            "buffer": 0,
            "byteOffset": 188256,
            "byteLength": 23544,
            "target": 34963
        },
        {
            "buffer": 0,
            "byteOffset": 211800,
            "byteLength": 18012,
            "target": 34962
        },
        {
            "buffer": 0,
            "byteOffset": 229812,
            "byteLength": 18012,
            "target": 34962
        },
        {
            "buffer": 0,
            "byteOffset": 247824,
            "byteLength": 21384,
            "target": 34963
        },
        {
            "buffer": 0,
            "byteOffset": 269208,
            "byteLength": 9936,
            "target": 34962
        },
        {
            "buffer": 0,
            "byteOffset": 279144,
            "byteLength": 9936,
            "target": 34962
        },
        {
            "buffer": 0,
            "byteOffset": 289080,
            "byteLength": 10392,
            "target": 34963
        },
        {
            "buffer": 0,
            "byteOffset": 299472,
            "byteLength": 24,
            "target": 34962
        },
        {
            "buffer": 0,
            "byteOffset": 299496,
            "byteLength": 24,
            "target": 34962
        },
        {
            "buffer": 0,
            "byteOffset": 299520,
            "byteLength": 8,
            "target": 34963
        },
        {
            "buffer": 0,
            "byteOffset": 299528,
            "byteLength": 28668,
            "target": 34962
        },
        {
            "buffer": 0,
            "byteOffset": 328196,
            "byteLength": 28668,
            "target": 34962
        },
        {
            "buffer": 0,
            "byteOffset": 356864,
            "byteLength": 30300,
            "target": 34963
        },
        {
            "buffer": 0,
            "byteOffset": 387164,
            "byteLength": 3816,
            "target": 34962
        },
        {
            "buffer": 0,
            "byteOffset": 390980,
            "byteLength": 3816,
            "target": 34962
        },
        {
            "buffer": 0,
            "byteOffset": 394796,
            "byteLength": 3744,
            "target": 34963
        },
        {
            "buffer": 0,
            "byteOffset": 398540,
            "byteLength": 5088,
            "target": 34962
        },
        {
            "buffer": 0,
            "byteOffset": 403628,
            "byteLength": 5088,
            "target": 34962
        },
        {
            "buffer": 0,
            "byteOffset": 408716,
            "byteLength": 4992,
            "target": 34963
        }
    ],
    "materials": [
        {
            "name": "Mat_1",
            "pbrMetallicRoughness": {
                "baseColorFactor": [
                    0.31854677200317383,
                    0.22322796285152435,
                    0.1119324266910553,
                    1.0
                ],
                "metallicFactor": 0.0,
                "roughnessFactor": 0.30000001192092896
            },
            "doubleSided": true
        },
        {
            "name": "Mat_4",
            "pbrMetallicRoughness": {
                "baseColorFactor": [
                    0.35153260827064514,
                    0.35153260827064514,
                    0.35153260827064514,
                    1.0
                ],
                "metallicFactor": 0.0,
                "roughnessFactor": 0.30000001192092896
            },
            "doubleSided": true
        },
        {
            "name": "Mat_6",
            "pbrMetallicRoughness": {
                "baseColorFactor": [
                    0.25015828013420105,
                    0.25015828013420105,
                    0.25015828013420105,
                    1.0
                ],
                "metallicFactor": 0.0,
                "roughnessFactor": 0.30000001192092896
            },
            "doubleSided": true
        },
        {
            "name": "Mat_7",
            "pbrMetallicRoughness": {
                "metallicFactor": 0.0,
                "roughnessFactor": 0.30000001192092896
            },
            "doubleSided": true
        }
    ],
    "meshes": [
        {
            "name": "meshes[0]",
            "primitives": [
                {
                    "mode": 4,
                    "material": 0,
                    "indices": 2,
                    "attributes": {
                        "POSITION": 0,
                        "NORMAL": 1
                    }
                }
            ]
        },
        {
            "name": "meshes[1]",
            "primitives": [
                {
                    "mode": 4,
                    "material": 0,
                    "indices": 5,
                    "attributes": {
                        "POSITION": 3,
                        "NORMAL": 4
                    }
                }
            ]
        },
        {
            "name": "meshes[2]",
            "primitives": [
                {
                    "mode": 4,
                    "material": 0,
                    "indices": 8,
                    "attributes": {
                        "POSITION": 6,
                        "NORMAL": 7
                    }
                }
            ]
        },
        {
            "name": "meshes[3]",
            "primitives": [
                {
                    "mode": 4,
                    "material": 1,
                    "indices": 11,
                    "attributes": {
                        "POSITION": 9,
                        "NORMAL": 10
                    }
                }
            ]
        },
        {
            "name": "meshes[4]",
            "primitives": [
                {
                    "mode": 4,
                    "material": 1,
                    "indices": 14,
                    "attributes": {
                        "POSITION": 12,
                        "NORMAL": 13
                    }
                }
            ]
        },
        {
            "name": "meshes[5]",
            "primitives": [
                {
                    "mode": 1,
                    "material": 2,
                    "indices": 17,
                    "attributes": {
                        "POSITION": 15,
                        "NORMAL": 16
                    }
                },
                {
                    "mode": 4,
                    "material": 2,
                    "indices": 20,
                    "attributes": {
                        "POSITION": 18,
                        "NORMAL": 19
                    }
                }
            ]
        },
        {
            "name": "meshes[6]",
            "primitives": [
                {
                    "mode": 4,
                    "material": 3,
                    "indices": 23,
                    "attributes": {
                        "POSITION": 21,
                        "NORMAL": 22
                    }
                }
            ]
        },
        {
            "name": "meshes[7]",
            "primitives": [
                {
                    "mode": 4,
                    "material": 3,
                    "indices": 26,
                    "attributes": {
                        "POSITION": 24,
                        "NORMAL": 25
                    }
                }
            ]
        }
    ],
    "nodes": [
        {
            "name": "Assembly",
            "children": [
                1
            ]
        },
        {
            "name": "(Unsaved)",
            "children": [
                2,
                6,
                9
            ]
        },
        {
            "name": "RETHI Screwdriver Mount v1",
            "children": [
                3,
                4,
                5
            ]
        },
        {
            "name": "Cap",
            "mesh": 0
        },
        {
            "name": "Connector",
            "mesh": 1
        },
        {
            "name": "SOLID",
            "mesh": 2
        },
        {
            "name": "RETHI Hex Screwdriver Mount Cap v1",
            "children": [
                7,
                8
            ]
        },
        {
            "name": "Cap (1)",
            "mesh": 3
        },
        {
            "name": "SOLID_node",
            "mesh": 4
        },
        {
            "name": "RETHI Vacuum Chamber Tee Fitting v1",
            "children": [
                10,
                11,
                12
            ]
        },
        {
            "name": "16T68-02-02 v1",
            "mesh": 5
        },
        {
            "name": "nodes[8]",
            "mesh": 6
        },
        {
            "name": "nodes[9]",
            "mesh": 7
        }
    ],
    "scenes": [
        {
            "nodes": [
                0
            ]
        }
    ],
    "scene": 0
}