{
    "asset" : {
        "generator" : "Khronos glTF Blender I/O v3.2.40",
        "version" : "2.0"
    },
    "scene" : 0,
    "scenes" : [
        {
            "name" : "Scene",
            "nodes" : [
                1,
                2
            ]
        }
    ],
    "nodes" : [
        {
            "mesh" : 0,
            "name" : "Club",
            "translation" : [
                -2.4274224415421486e-05,
                0.002438108203932643,
                -0.0334341824054718
            ]
        },
        {
            "children" : [
                0
            ],
            "mesh" : 1,
            "name" : "Base"
        },
        {
            "mesh" : 2,
            "name" : "imageinsoifen",
            "rotation" : [
                0,
                0.7071068286895752,
                0.7071068286895752,
                0
            ],
            "scale" : [
                -0.10700160264968872,
                -0.10700160264968872,
                -0.10700160264968872
            ],
            "translation" : [
                0,
                0.10999999940395355,
                -0.03700000047683716
            ]
        }
    ],
    "materials" : [
        {
            "doubleSided" : true,
            "name" : "New",
            "normalTexture" : {
                "index" : 0,
                "scale" : 2
            },
            "pbrMetallicRoughness" : {
                "baseColorTexture" : {
                    "index" : 1
                },
                "metallicRoughnessTexture" : {
                    "index" : 2
                }
            }
        },
        {
            "alphaMode" : "BLEND",
            "doubleSided" : true,
            "name" : "imageinsoifen",
            "pbrMetallicRoughness" : {
                "baseColorTexture" : {
                    "index" : 3
                },
                "metallicFactor" : 0,
                "roughnessFactor" : 0.5
            }
        }
    ],
    "meshes" : [
        {
            "name" : "Plane.001",
            "primitives" : [
                {
                    "attributes" : {
                        "POSITION" : 0,
                        "NORMAL" : 1,
                        "TEXCOORD_0" : 2
                    },
                    "indices" : 3,
                    "material" : 0
                }
            ]
        },
        {
            "name" : "Plane.003",
            "primitives" : [
                {
                    "attributes" : {
                        "POSITION" : 4,
                        "NORMAL" : 5,
                        "TEXCOORD_0" : 6
                    },
                    "indices" : 7,
                    "material" : 0
                }
            ]
        },
        {
            "name" : "imageinsoifen",
            "primitives" : [
                {
                    "attributes" : {
                        "POSITION" : 8,
                        "NORMAL" : 9,
                        "TEXCOORD_0" : 10
                    },
                    "indices" : 11,
                    "material" : 1
                }
            ]
        }
    ],
    "textures" : [
        {
            "sampler" : 0,
            "source" : 0
        },
        {
            "sampler" : 0,
            "source" : 1
        },
        {
            "sampler" : 0,
            "source" : 2
        },
        {
            "sampler" : 1,
            "source" : 3
        }
    ],
    "images" : [
        {
            "bufferView" : 4,
            "mimeType" : "image/png",
            "name" : "Image_0"
        },
        {
            "bufferView" : 5,
            "mimeType" : "image/png",
            "name" : "Image_1"
        },
        {
            "bufferView" : 6,
            "mimeType" : "image/png",
            "name" : "Image_2"
        },
        {
            "bufferView" : 15,
            "mimeType" : "image/png",
            "name" : "imageinsoifen"
        }
    ],
    "accessors" : [
        {
            "bufferView" : 0,
            "componentType" : 5126,
            "count" : 377,
            "max" : [
                0.15999475121498108,
                0.1970817744731903,
                0.002537640742957592
            ],
            "min" : [
                -0.15995322167873383,
                -0.0029874686151742935,
                -0.012526807375252247
            ],
            "type" : "VEC3"
        },
        {
            "bufferView" : 1,
            "componentType" : 5126,
            "count" : 377,
            "type" : "VEC3"
        },
        {
            "bufferView" : 2,
            "componentType" : 5126,
            "count" : 377,
            "type" : "VEC2"
        },
        {
            "bufferView" : 3,
            "componentType" : 5123,
            "count" : 1380,
            "type" : "SCALAR"
        },
        {
            "bufferView" : 7,
            "componentType" : 5126,
            "count" : 260,
            "max" : [
                0.1599704772233963,
                0.005450651049613953,
                0.16267728805541992
            ],
            "min" : [
                -0.1599774956703186,
                -0.010561734437942505,
                -0.03693592548370361
            ],
            "type" : "VEC3"
        },
        {
            "bufferView" : 8,
            "componentType" : 5126,
            "count" : 260,
            "type" : "VEC3"
        },
        {
            "bufferView" : 9,
            "componentType" : 5126,
            "count" : 260,
            "type" : "VEC2"
        },
        {
            "bufferView" : 10,
            "componentType" : 5123,
            "count" : 960,
            "type" : "SCALAR"
        },
        {
            "bufferView" : 11,
            "componentType" : 5126,
            "count" : 4,
            "max" : [
                0.510869562625885,
                0,
                0.5
            ],
            "min" : [
                -0.510869562625885,
                0,
                -0.5
            ],
            "type" : "VEC3"
        },
        {
            "bufferView" : 12,
            "componentType" : 5126,
            "count" : 4,
            "type" : "VEC3"
        },
        {
            "bufferView" : 13,
            "componentType" : 5126,
            "count" : 4,
            "type" : "VEC2"
        },
        {
            "bufferView" : 14,
            "componentType" : 5123,
            "count" : 6,
            "type" : "SCALAR"
        }
    ],
    "bufferViews" : [
        {
            "buffer" : 0,
            "byteLength" : 4524,
            "byteOffset" : 0
        },
        {
            "buffer" : 0,
            "byteLength" : 4524,
            "byteOffset" : 4524
        },
        {
            "buffer" : 0,
            "byteLength" : 3016,
            "byteOffset" : 9048
        },
        {
            "buffer" : 0,
            "byteLength" : 2760,
            "byteOffset" : 12064
        },
        {
            "buffer" : 0,
            "byteLength" : 387737,
            "byteOffset" : 14824
        },
        {
            "buffer" : 0,
            "byteLength" : 130326,
            "byteOffset" : 402564
        },
        {
            "buffer" : 0,
            "byteLength" : 74334,
            "byteOffset" : 532892
        },
        {
            "buffer" : 0,
            "byteLength" : 3120,
            "byteOffset" : 607228
        },
        {
            "buffer" : 0,
            "byteLength" : 3120,
            "byteOffset" : 610348
        },
        {
            "buffer" : 0,
            "byteLength" : 2080,
            "byteOffset" : 613468
        },
        {
            "buffer" : 0,
            "byteLength" : 1920,
            "byteOffset" : 615548
        },
        {
            "buffer" : 0,
            "byteLength" : 48,
            "byteOffset" : 617468
        },
        {
            "buffer" : 0,
            "byteLength" : 48,
            "byteOffset" : 617516
        },
        {
            "buffer" : 0,
            "byteLength" : 32,
            "byteOffset" : 617564
        },
        {
            "buffer" : 0,
            "byteLength" : 12,
            "byteOffset" : 617596
        },
        {
            "buffer" : 0,
            "byteLength" : 12182,
            "byteOffset" : 617608
        }
    ],
    "samplers" : [
        {
            "magFilter" : 9729,
            "minFilter" : 9987
        },
        {
            "magFilter" : 9729,
            "minFilter" : 9987,
            "wrapS" : 33071,
            "wrapT" : 33071
        }
    ],
    "buffers" : [
        {
            "byteLength" : 629792,
            "uri" : "data:application/octet-stream;base64,"
        }
    ]
}
